<?xml version="1.0" encoding="UTF-8" standalone="no"?>
<svg
   width="320"
   height="71.07831292101727"
   viewBox="0 0 320 71.07831292101727"
   class="css-1j8o68f"
   version="1.1"
   id="svg19"
   sodipodi:docname="logo.svg"
   inkscape:version="1.2.1 (9c6d41e410, 2022-07-14)"
   xmlns:inkscape="http://www.inkscape.org/namespaces/inkscape"
   xmlns:sodipodi="http://sodipodi.sourceforge.net/DTD/sodipodi-0.dtd"
   xmlns="http://www.w3.org/2000/svg"
   xmlns:svg="http://www.w3.org/2000/svg">
  <sodipodi:namedview
     id="namedview21"
     pagecolor="#ffffff"
     bordercolor="#666666"
     borderopacity="1.0"
     inkscape:showpageshadow="2"
     inkscape:pageopacity="0.0"
     inkscape:pagecheckerboard="0"
     inkscape:deskcolor="#d1d1d1"
     showgrid="false"
     inkscape:zoom="3.3202813"
     inkscape:cx="155.25793"
     inkscape:cy="35.539158"
     inkscape:window-width="1920"
     inkscape:window-height="1131"
     inkscape:window-x="0"
     inkscape:window-y="32"
     inkscape:window-maximized="1"
     inkscape:current-layer="svg19" />
  <defs
     id="SvgjsDefs2326" />
  <g
     id="SvgjsG2327"
     featurekey="JKiIdh-0"
     transform="matrix(1.9844852685928345,0,0,1.9844852685928345,0.0017832577523499448,-28.939747709102843)"
     fill="#0092ca"
     style="fill:#393e46;fill-opacity:1">
    <g
       id="g13"
       style="fill:#393e46;fill-opacity:1">
      <path
         d="M50.39,50.4c0,0-2.547-8.199-8.847-14.646c-1.771-1.917-6.527-3.745-9.808-0.982C26.071,39.538,26.071,50.4,26.071,50.4   H50.39z"
         id="path3"
         style="fill:#393e46;fill-opacity:1" />
      <path
         d="M22.859,50.385c-0.022-2.965-2.43-5.362-5.4-5.362c-2.401,0-4.411,1.577-5.113,3.743l-9.494,0.002   c-0.088,0-0.539-0.017-0.925-0.355c-0.36-0.314-0.314-0.711-0.277-1.029c0.007-0.065,0.014-0.125,0.008-0.125l-0.001,0.001   c1.571-5.367,5.161-13.728,5.538-14.445c0.122-0.209,0.434-0.442,0.74-0.555l0.286-0.086l0.035,0.179   c1.685,8.027,3.381,10.805,3.455,10.921l0.188,0.302l2.267-0.471L8.896,17.667l-2.299,0.477l-0.027,0.386   c-0.01,0.146-0.229,3.638,1.225,11.43c-0.001,0.001-0.002,0.001-0.003,0.002l0.082,0.423l-0.359,0.14   C6.951,30.756,6.47,31.111,6,31.641c-0.488,0.545-3.989,8.63-5.921,15.229c-0.014,0.052-0.025,0.105-0.036,0.204   c-0.138,0.921,0.05,1.703,0.555,2.322c0.793,0.968,2.081,0.996,2.224,0.996l11.702-0.003v-0.005H22.859z"
         id="path5"
         style="fill:#393e46;fill-opacity:1" />
      <g
         id="g11"
         style="fill:#393e46;fill-opacity:1">
        <path
           d="M30.14,17.512l0.772,3.93c1.424,0.338,2.486,1.61,2.486,3.139c0,1.786-1.448,3.233-3.233,3.233s-3.234-1.447-3.234-3.233    c0-1.095,0.549-2.059,1.38-2.644l-0.838-4.272c-3.393,0.796-5.93,3.84-5.93,7.485c0,4.238,3.448,7.683,7.684,7.683    c4.255,0,7.697-3.445,7.697-7.683C36.924,21.205,33.964,17.963,30.14,17.512z"
           id="path7"
           style="fill:#393e46;fill-opacity:1" />
        <path
           d="M29.227,17.453c0.31,0,0.613,0.024,0.913,0.059l-0.568-2.929l-2.598,0.508l0.498,2.572    C28.037,17.531,28.623,17.453,29.227,17.453z"
           id="path9"
           style="fill:#393e46;fill-opacity:1" />
      </g>
    </g>
  </g>
  <g
     id="SvgjsG2328"
     featurekey="A7DQL5-0"
     transform="matrix(2.141139268875122,0,0,2.141139268875122,117.69991466488914,8.1616826627544)"
     fill="#393e46">
    <path
       d="M9.1016 20 q0.576171875 0 0.9765625 -0.4052734375 t0.40039 -0.97168 t-0.40039 -0.97168 t-0.97656 -0.40527 l-3.6719 0 q-0.52734375 0 -0.78125 -0.166015625 q-0.8203125 -0.546875 -0.8203125 -2.333984375 l0 -7.373 q0 -0.56640625 -0.4052734375 -0.9716796875 t-0.97168 -0.40527 q-0.576171875 0 -0.9765625 0.4052734375 t-0.40039 0.97168 l0 7.373 q0 2.431640625 1.171875 3.842773438 t3.1836 1.4111 l3.6719 0 z M21.279334374999998 20 l-7.1777 0 q-0.576171875 0 -0.9765625 -0.4052734375 t-0.40039 -0.97168 t0.40039 -0.97168 t0.97656 -0.40527 l7.1777 0 q0.56640625 0 0.9716796875 0.4052734375 t0.40527 0.97168 t-0.40527 0.97168 t-0.97168 0.40527 z M21.279334374999998 8.75 l-7.1777 0 q-0.576171875 0 -0.9765625 -0.400390625 t-0.40039 -0.97656 q0 -0.56640625 0.400390625 -0.9716796875 t0.97656 -0.40527 l7.1777 0 q0.56640625 0 0.9716796875 0.4052734375 t0.40527 0.97168 q0 0.576171875 -0.4052734375 0.9765625 t-0.97168 0.40039 z M21.279334374999998 14.375 l-7.1777 0 q-0.576171875 0 -0.9765625 -0.400390625 t-0.40039 -0.97656 q0 -0.56640625 0.400390625 -0.9716796875 t0.97656 -0.40527 l7.1777 0 q0.56640625 0 0.9716796875 0.4052734375 t0.40527 0.97168 q0 0.576171875 -0.4052734375 0.9765625 t-0.97168 0.40039 z M29.42385625 20 q-1.30859375 0 -2.485351563 -0.4638671875 t-1.9678 -1.3037 q-0.361328125 -0.4296875 -0.361328125 -0.9375 q0 -0.029296875 0.009765625 -0.322265625 t0.43945 -0.69336 q0.41015625 -0.3515625 0.908203125 -0.3515625 q0.0390625 0 0.33203125 0.009765625 t0.70313 0.43945 q0.576171875 0.576171875 1.591796875 0.78125 q0.4296875 0.078125 0.83984375 0.078125 q0.576171875 0 1.123046875 -0.15625 q0.810546875 -0.29296875 0.9765625 -0.791015625 q0.068359375 -0.224609375 0.068359375 -0.44921875 t-0.11719 -0.42969 q-0.234375 -0.419921875 -2.32421875 -0.947265625 q-0.791015625 -0.205078125 -1.572265625 -0.46875 q-3.076171875 -1.0546875 -3.076171875 -3.80859375 q0 -2.20703125 1.884765625 -3.3984375 q1.2890625 -0.791015625 3.037109375 -0.791015625 q0.6640625 0 1.059570313 0.4052734375 t0.39551 0.99121 q-0.029296875 0.576171875 -0.4248046875 0.966796875 t-0.95215 0.39063 l-0.087891 0 q-1.142578125 0 -1.787109375 0.52734375 q-0.380859375 0.3125 -0.380859375 0.927734375 q0 0.29296875 0.1416015625 0.5419921875 t0.71289 0.49805 t1.7627 0.55176 q0.751953125 0.1953125 1.50390625 0.439453125 t1.3867 0.66406 q1.58203125 1.064453125 1.58203125 2.919921875 q0 0.224609375 -0.01953125 0.458984375 q-0.302734375 2.5 -2.91015625 3.41796875 q-0.95703125 0.302734375 -1.9921875 0.302734375 z M32.85155625 10.0391 q-0.576171875 0 -0.9765625 -0.4052734375 t-0.40039 -0.97168 q0 -0.576171875 0.400390625 -0.9765625 t0.97656 -0.40039 q0.56640625 0 0.9716796875 0.400390625 t0.40527 0.97656 q0 0.56640625 -0.4052734375 0.9716796875 t-0.97168 0.40527 z M41.093765625 20 q-0.576171875 0 -0.9765625 -0.4052734375 t-0.40039 -0.97168 l0 -9.873 l-2.5293 0 q-0.576171875 0 -0.9765625 -0.400390625 t-0.40039 -0.97656 q0 -0.56640625 0.400390625 -0.9716796875 t0.97656 -0.40527 l3.9063 0 q0.56640625 0 0.9716796875 0.4052734375 t0.40527 0.97168 l0 11.25 q0 0.56640625 -0.4052734375 0.9716796875 t-0.97168 0.40527 z M44.999965625 8.75 q-0.56640625 0 -0.9716796875 -0.400390625 t-0.40527 -0.97656 q0 -0.56640625 0.4052734375 -0.9716796875 t0.97168 -0.40527 t0.97168 0.40527 t0.40527 0.97168 q0 0.576171875 -0.4052734375 0.9765625 t-0.97168 0.40039 z M53.330034375 20 q-2.080078125 0 -3.671875 -1.337890625 q-0.400390625 -0.341796875 -0.791015625 -0.888671875 t-0.65918 -1.3184 t-0.26855 -1.7969 l0 -3.457 q0 -0.56640625 0.4052734375 -0.9716796875 t0.97168 -0.40527 t0.97168 0.40527 t0.40527 0.97168 l0 3.457 q0 0.95703125 0.4052734375 1.5234375 t1.0107 0.81543 t1.2207 0.24902 q0.60546875 0 1.2109375 -0.2490234375 t1.0107 -0.81543 t0.40527 -1.5234 l0 -7.2852 q0 -0.56640625 0.4052734375 -0.9716796875 t0.97168 -0.40527 q0.576171875 0 0.9765625 0.4052734375 t0.40039 0.97168 l0 7.2852 q0 1.025390625 -0.263671875 1.796875 t-0.65918 1.3184 t-0.7959 0.88867 q-1.591796875 1.337890625 -3.662109375 1.337890625 z M49.316434375 8.75 q-0.56640625 0 -0.9716796875 -0.400390625 t-0.40527 -0.97656 q0 -0.56640625 0.4052734375 -0.9716796875 t0.97168 -0.40527 t0.97168 0.40527 t0.40527 0.97168 q0 0.576171875 -0.4052734375 0.9765625 t-0.97168 0.40039 z M67.33395625 20 q1.416015625 0 2.607421875 -0.595703125 t2.041 -1.7188 q1.4453125 -2.03125 1.4453125 -4.6875 q0 -2.646484375 -1.4453125 -4.6875 q-0.849609375 -1.123046875 -2.041015625 -1.71875 t-2.6074 -0.5957 l-5 0 q-0.576171875 0 -0.9765625 0.4052734375 t-0.40039 0.97168 l0 3.418 q0 0.576171875 0.400390625 0.9765625 t0.97656 0.40039 q0.56640625 0 0.9716796875 -0.400390625 t0.40527 -0.97656 l0 -2.041 l3.623 0 q1.796875 0 2.666015625 1.533203125 q0.68359375 1.2109375 0.68359375 2.71484375 q0 1.748046875 -0.908203125 3.046875 q-0.908203125 1.201171875 -2.44140625 1.201171875 l-5 0 q-0.576171875 0 -0.9765625 0.4052734375 t-0.40039 0.97168 t0.40039 0.97168 t0.97656 0.40527 l5 0 z M76.953096875 20 q0.56640625 0 0.9716796875 -0.4052734375 t0.40527 -0.97168 l0 -11.25 q0 -0.56640625 -0.4052734375 -0.9716796875 t-0.97168 -0.40527 q-0.576171875 0 -0.9765625 0.4052734375 t-0.40039 0.97168 l0 11.25 q0 0.56640625 0.400390625 0.9716796875 t0.97656 0.40527 z M87.480453125 20 q1.923828125 0 3.515625 -0.947265625 t2.5391 -2.5342 t0.94727 -3.5107 q0 -1.865234375 -0.95703125 -3.53515625 q-0.927734375 -1.572265625 -2.490234375 -2.509765625 q-0.3515625 -0.185546875 -0.712890625 -0.185546875 q-0.166015625 0 -0.517578125 0.087890625 t-0.66406 0.58594 q-0.185546875 0.33203125 -0.185546875 0.68359375 q0 0.17578125 0.0927734375 0.537109375 t0.58105 0.66406 q0.986328125 0.5859375 1.54296875 1.5625 t0.55664 2.1094 q0 1.162109375 -0.5712890625 2.124023438 t-1.5381 1.5381 t-2.1387 0.57617 q-1.162109375 0 -2.12890625 -0.576171875 t-1.543 -1.5381 t-0.57617 -2.124 q0 -0.3515625 0.05859375 -0.693359375 l0.019531 -0.21484 q0 -0.44921875 -0.29296875 -0.849609375 q-0.37109375 -0.517578125 -1.09375 -0.517578125 q-0.44921875 0 -0.849609375 0.2880859375 t-0.49805 0.85449 t-0.097656 1.1328 q0 1.923828125 0.947265625 3.510742188 t2.5342 2.5342 t3.5205 0.94727 z"
       id="path16" />
  </g>
</svg>
